<svg xmlns="http://www.w3.org/2000/svg" xmlns:xlink="http://www.w3.org/1999/xlink" width="40" zoomAndPan="magnify" viewBox="0 0 30 30.000001" height="40" preserveAspectRatio="xMidYMid meet" version="1.0"><defs><filter x="0%" y="0%" width="100%" height="100%" id="aec4627da0"><feColorMatrix values="0 0 0 0 1 0 0 0 0 1 0 0 0 0 1 0 0 0 -1 1" color-interpolation-filters="sRGB"/></filter><filter x="0%" y="0%" width="100%" height="100%" id="5d8aeefd68"><feImage x="0" y="0" result="source" width="43.2" xlink:href="#a59962a401" height="43.200001"/><feImage x="0" y="0" result="destination" width="43.2" xlink:href="#f292f6284c" height="43.200001"/><feBlend in2="destination" mode="multiply" color-interpolation-filters="sRGB" in="source"/></filter><filter x="0%" y="0%" width="100%" height="100%" id="829339c077"><feImage x="0" y="0" result="source" width="43.2" xlink:href="#5b7598ee3c" height="43.200001"/><feImage x="0" y="0" result="destination" width="43.2" xlink:href="#49270582bd" height="43.200001"/><feComposite color-interpolation-filters="sRGB" in="source" k1="0" k2="1" k3="1" k4="0" in2="destination" operator="arithmetic"/></filter><clipPath id="d3cffa7a01"><path d="M 0.484375 0 L 29.515625 0 L 29.515625 29.03125 L 0.484375 29.03125 Z M 0.484375 0 " clip-rule="nonzero"/></clipPath><clipPath id="0e1f88797f"><path d="M 0.484375 0 L 29.515625 0 L 29.515625 29.03125 L 0.484375 29.03125 Z M 0.484375 0 " clip-rule="nonzero"/></clipPath><clipPath id="b9c6dd069f"><path d="M 0.484375 0 L 29.515625 0 L 29.515625 27 L 0.484375 27 Z M 0.484375 0 " clip-rule="nonzero"/></clipPath><clipPath id="fbc5666629"><path d="M 1 0 L 29.515625 0 L 29.515625 25 L 1 25 Z M 1 0 " clip-rule="nonzero"/></clipPath><clipPath id="680d34130f"><path d="M 12 0.0195312 L 14 0.0195312 L 14 3 L 12 3 Z M 12 0.0195312 " clip-rule="nonzero"/></clipPath><clipPath id="46375112b8"><path d="M 8 0.0195312 L 11 0.0195312 L 11 3 L 8 3 Z M 8 0.0195312 " clip-rule="nonzero"/></clipPath><clipPath id="0a8ba018bb"><path d="M 0.34375 10 L 3 10 L 3 13 L 0.34375 13 Z M 0.34375 10 " clip-rule="nonzero"/></clipPath><clipPath id="07f0c28dd1"><path d="M 23 11 L 24.960938 11 L 24.960938 14 L 23 14 Z M 23 11 " clip-rule="nonzero"/></clipPath><clipPath id="9e85a1fa2a"><path d="M 23 4 L 24.960938 4 L 24.960938 7 L 23 7 Z M 23 4 " clip-rule="nonzero"/></clipPath><clipPath id="54684107f9"><rect x="0" width="25" y="0" height="20"/></clipPath><mask id="4b1fc123a2"><g><g transform="translate(6.6, 6.6)"><rect x="-6.6" width="43.2" fill="#000000" height="43.200001" y="-6.6" fill-opacity="0"/><rect x="-6.6" width="43.2" fill="#ffffff" height="43.200001" y="-6.6" fill-opacity="1"/></g></g></mask><mask id="30ace3e2dc"><g filter="url(#aec4627da0)"><g transform="translate(6.6, 6.6)"><rect x="-6.6" width="43.2" fill="#000000" height="43.200001" y="-6.6" fill-opacity="0"/><rect x="-6.6" width="43.2" fill="#ffffff" height="43.200001" y="-6.6" fill-opacity="1"/></g></g></mask><mask id="801c31bb06"><g transform="translate(6.6, 6.6)"><rect x="-6.6" width="43.2" fill="#ffffff" y="-6.6" height="43.200001" fill-opacity="1"/></g></mask><g id="a59962a401" mask="url(#801c31bb06)"><g transform="translate(6.6, 6.6)"><g transform="matrix(1, 0, 0, 1, 2, 3)"><g clip-path="url(#54684107f9)"><g clip-path="url(#680d34130f)"><path fill="#f8e6d8" d="M 13.757812 0.316406 L 13.859375 0.375 C 13.964844 0.4375 13.988281 0.519531 13.925781 0.628906 L 13.007812 2.21875 C 12.945312 2.324219 12.863281 2.347656 12.757812 2.285156 L 12.65625 2.226562 C 12.550781 2.167969 12.527344 2.082031 12.589844 1.976562 L 13.507812 0.386719 C 13.566406 0.277344 13.652344 0.257812 13.757812 0.316406 Z M 13.757812 0.316406 " fill-opacity="1" fill-rule="nonzero"/></g><g clip-path="url(#46375112b8)"><path fill="#6ec9c8" d="M 8.820312 0.339844 L 8.925781 0.289062 C 9.035156 0.234375 9.117188 0.261719 9.171875 0.371094 L 9.992188 2.015625 C 10.046875 2.125 10.019531 2.207031 9.910156 2.261719 L 9.804688 2.316406 C 9.695312 2.371094 9.613281 2.34375 9.558594 2.230469 L 8.738281 0.589844 C 8.683594 0.480469 8.710938 0.394531 8.820312 0.339844 Z M 8.820312 0.339844 " fill-opacity="1" fill-rule="nonzero"/></g><path fill="#ce046a" d="M 4.234375 3.976562 L 4.257812 3.863281 C 4.28125 3.742188 4.355469 3.695312 4.476562 3.722656 L 6.273438 4.105469 C 6.394531 4.132812 6.441406 4.203125 6.414062 4.324219 L 6.390625 4.4375 C 6.363281 4.558594 6.292969 4.605469 6.171875 4.578125 L 4.375 4.195312 C 4.253906 4.167969 4.207031 4.097656 4.234375 3.976562 Z M 4.234375 3.976562 " fill-opacity="1" fill-rule="nonzero"/><path fill="#f8e6d8" d="M 2.960938 6.710938 L 3.0625 6.769531 C 3.167969 6.832031 3.191406 6.914062 3.128906 7.023438 L 2.210938 8.613281 C 2.152344 8.71875 2.066406 8.742188 1.960938 8.679688 L 1.859375 8.621094 C 1.753906 8.5625 1.730469 8.476562 1.792969 8.371094 L 2.710938 6.78125 C 2.773438 6.671875 2.855469 6.652344 2.960938 6.710938 Z M 2.960938 6.710938 " fill-opacity="1" fill-rule="nonzero"/><g clip-path="url(#0a8ba018bb)"><path fill="#ffcd06" d="M 0.582031 10.867188 L 0.667969 10.789062 C 0.757812 10.703125 0.84375 10.707031 0.925781 10.800781 L 2.167969 12.15625 C 2.25 12.246094 2.246094 12.332031 2.15625 12.417969 L 2.070312 12.496094 C 1.976562 12.578125 1.890625 12.574219 1.808594 12.484375 L 0.570312 11.125 C 0.484375 11.035156 0.488281 10.949219 0.582031 10.867188 Z M 0.582031 10.867188 " fill-opacity="1" fill-rule="nonzero"/></g><path fill="#f8e6d8" d="M 5.824219 8.941406 L 5.925781 9 C 6.03125 9.0625 6.054688 9.148438 5.992188 9.253906 L 5.074219 10.84375 C 5.011719 10.949219 4.929688 10.972656 4.820312 10.910156 L 4.722656 10.851562 C 4.613281 10.792969 4.59375 10.707031 4.652344 10.601562 L 5.570312 9.011719 C 5.632812 8.902344 5.71875 8.882812 5.824219 8.941406 Z M 5.824219 8.941406 " fill-opacity="1" fill-rule="nonzero"/><path fill="#6ec9c8" d="M 2.003906 13.75 L 2.117188 13.773438 C 2.238281 13.800781 2.285156 13.875 2.257812 13.992188 L 1.875 15.789062 C 1.847656 15.910156 1.773438 15.957031 1.65625 15.933594 L 1.542969 15.90625 C 1.421875 15.882812 1.375 15.808594 1.398438 15.6875 L 1.785156 13.890625 C 1.808594 13.773438 1.882812 13.722656 2.003906 13.75 Z M 2.003906 13.75 " fill-opacity="1" fill-rule="nonzero"/><path fill="#f8e6d8" d="M 4.804688 12.410156 L 4.917969 12.441406 C 5.035156 12.472656 5.078125 12.550781 5.042969 12.667969 L 4.542969 14.4375 C 4.511719 14.554688 4.433594 14.597656 4.316406 14.5625 L 4.203125 14.53125 C 4.085938 14.5 4.042969 14.421875 4.078125 14.304688 L 4.578125 12.535156 C 4.609375 12.417969 4.6875 12.375 4.804688 12.410156 Z M 4.804688 12.410156 " fill-opacity="1" fill-rule="nonzero"/><path fill="#ce046a" d="M 7.359375 16.40625 L 7.460938 16.460938 C 7.566406 16.523438 7.589844 16.609375 7.527344 16.714844 L 6.609375 18.304688 C 6.550781 18.410156 6.464844 18.433594 6.359375 18.371094 L 6.257812 18.316406 C 6.152344 18.253906 6.128906 18.167969 6.191406 18.0625 L 7.109375 16.472656 C 7.171875 16.367188 7.253906 16.34375 7.359375 16.40625 Z M 7.359375 16.40625 " fill-opacity="1" fill-rule="nonzero"/><path fill="#ffcd06" d="M 9.984375 17.875 L 10.039062 17.773438 C 10.09375 17.664062 10.175781 17.636719 10.285156 17.695312 L 11.917969 18.535156 C 12.027344 18.59375 12.054688 18.675781 11.996094 18.785156 L 11.945312 18.886719 C 11.886719 18.996094 11.804688 19.023438 11.695312 18.96875 L 10.0625 18.125 C 9.953125 18.066406 9.929688 17.984375 9.984375 17.875 Z M 9.984375 17.875 " fill-opacity="1" fill-rule="nonzero"/><path fill="#ce046a" d="M 15.777344 18.433594 L 15.734375 18.542969 C 15.6875 18.65625 15.609375 18.691406 15.492188 18.644531 L 13.785156 17.96875 C 13.671875 17.925781 13.636719 17.84375 13.683594 17.730469 L 13.726562 17.621094 C 13.769531 17.507812 13.851562 17.472656 13.964844 17.519531 L 15.671875 18.195312 C 15.785156 18.238281 15.820312 18.320312 15.777344 18.433594 Z M 15.777344 18.433594 " fill-opacity="1" fill-rule="nonzero"/><path fill="#f8e6d8" d="M 18.421875 15.265625 L 18.523438 15.320312 C 18.632812 15.382812 18.652344 15.46875 18.59375 15.574219 L 17.671875 17.164062 C 17.613281 17.273438 17.527344 17.292969 17.421875 17.234375 L 17.320312 17.175781 C 17.214844 17.113281 17.191406 17.027344 17.253906 16.921875 L 18.171875 15.332031 C 18.234375 15.226562 18.316406 15.203125 18.421875 15.265625 Z M 18.421875 15.265625 " fill-opacity="1" fill-rule="nonzero"/><path fill="#6ec9c8" d="M 20.140625 10.804688 L 20.230469 10.734375 C 20.328125 10.660156 20.414062 10.667969 20.492188 10.765625 L 21.617188 12.21875 C 21.695312 12.3125 21.683594 12.402344 21.585938 12.476562 L 21.492188 12.546875 C 21.398438 12.621094 21.308594 12.613281 21.234375 12.515625 L 20.105469 11.066406 C 20.03125 10.96875 20.042969 10.882812 20.140625 10.804688 Z M 20.140625 10.804688 " fill-opacity="1" fill-rule="nonzero"/><g clip-path="url(#07f0c28dd1)"><path fill="#ffcd06" d="M 24.441406 11.410156 L 24.542969 11.464844 C 24.648438 11.527344 24.671875 11.613281 24.609375 11.71875 L 23.691406 13.308594 C 23.628906 13.414062 23.546875 13.4375 23.4375 13.375 L 23.339844 13.320312 C 23.230469 13.257812 23.210938 13.171875 23.269531 13.066406 L 24.1875 11.476562 C 24.25 11.371094 24.335938 11.347656 24.441406 11.410156 Z M 24.441406 11.410156 " fill-opacity="1" fill-rule="nonzero"/></g><g clip-path="url(#9e85a1fa2a)"><path fill="#f8e6d8" d="M 24.628906 4.167969 L 24.726562 4.226562 C 24.835938 4.289062 24.855469 4.375 24.796875 4.480469 L 23.878906 6.070312 C 23.816406 6.175781 23.730469 6.199219 23.625 6.136719 L 23.523438 6.078125 C 23.417969 6.019531 23.394531 5.933594 23.457031 5.828125 L 24.375 4.238281 C 24.4375 4.128906 24.519531 4.109375 24.628906 4.167969 Z M 24.628906 4.167969 " fill-opacity="1" fill-rule="nonzero"/></g><path fill="#ffcd06" d="M 20.332031 1.691406 L 20.445312 1.652344 C 20.558594 1.613281 20.636719 1.652344 20.679688 1.765625 L 21.285156 3.5 C 21.328125 3.617188 21.289062 3.695312 21.171875 3.734375 L 21.0625 3.773438 C 20.949219 3.8125 20.871094 3.777344 20.828125 3.660156 L 20.222656 1.925781 C 20.179688 1.8125 20.21875 1.734375 20.332031 1.691406 Z M 20.332031 1.691406 " fill-opacity="1" fill-rule="nonzero"/><path fill="#ce046a" d="M 15.480469 1.9375 L 15.566406 1.859375 C 15.65625 1.777344 15.746094 1.78125 15.828125 1.871094 L 17.066406 3.226562 C 17.148438 3.316406 17.144531 3.402344 17.054688 3.488281 L 16.96875 3.566406 C 16.878906 3.648438 16.792969 3.644531 16.707031 3.554688 L 15.46875 2.199219 C 15.386719 2.105469 15.390625 2.019531 15.480469 1.9375 Z M 15.480469 1.9375 " fill-opacity="1" fill-rule="nonzero"/></g></g></g></g><g id="f292f6284c" transform="translate(6.6, 6.6)"><g clip-path="url(#0e1f88797f)"><path fill="#d99858" d="M 15.003906 0.00390625 C 6.988281 0.00390625 0.488281 6.5 0.488281 14.515625 C 0.488281 22.53125 6.988281 29.03125 15.003906 29.03125 C 23.019531 29.03125 29.515625 22.53125 29.515625 14.515625 C 29.515625 6.5 23.019531 0.00390625 15.003906 0.00390625 Z M 15.003906 19.03125 C 14.707031 19.03125 14.414062 19 14.121094 18.945312 C 13.832031 18.886719 13.550781 18.800781 13.277344 18.6875 C 13 18.574219 12.742188 18.433594 12.496094 18.269531 C 12.25 18.105469 12.019531 17.917969 11.8125 17.707031 C 11.601562 17.5 11.414062 17.269531 11.25 17.023438 C 11.085938 16.777344 10.945312 16.515625 10.832031 16.242188 C 10.71875 15.96875 10.632812 15.6875 10.574219 15.398438 C 10.519531 15.105469 10.488281 14.8125 10.488281 14.515625 C 10.488281 14.21875 10.519531 13.925781 10.574219 13.636719 C 10.632812 13.34375 10.71875 13.0625 10.832031 12.789062 C 10.945312 12.515625 11.085938 12.253906 11.25 12.007812 C 11.414062 11.761719 11.601562 11.535156 11.8125 11.324219 C 12.019531 11.113281 12.25 10.925781 12.496094 10.761719 C 12.742188 10.597656 13 10.460938 13.277344 10.34375 C 13.550781 10.230469 13.832031 10.148438 14.121094 10.089844 C 14.414062 10.03125 14.707031 10 15.003906 10 C 15.300781 10 15.59375 10.03125 15.882812 10.089844 C 16.175781 10.148438 16.457031 10.230469 16.730469 10.34375 C 17.003906 10.460938 17.265625 10.597656 17.511719 10.761719 C 17.757812 10.925781 17.984375 11.113281 18.195312 11.324219 C 18.40625 11.535156 18.589844 11.761719 18.757812 12.007812 C 18.921875 12.253906 19.058594 12.515625 19.171875 12.789062 C 19.285156 13.0625 19.371094 13.34375 19.429688 13.636719 C 19.488281 13.925781 19.515625 14.21875 19.515625 14.515625 C 19.515625 14.8125 19.488281 15.105469 19.429688 15.394531 C 19.371094 15.6875 19.285156 15.96875 19.171875 16.242188 C 19.058594 16.515625 18.917969 16.777344 18.753906 17.023438 C 18.589844 17.269531 18.402344 17.496094 18.195312 17.707031 C 17.984375 17.917969 17.757812 18.101562 17.507812 18.269531 C 17.261719 18.433594 17.003906 18.570312 16.730469 18.683594 C 16.457031 18.800781 16.171875 18.882812 15.882812 18.941406 C 15.59375 19 15.300781 19.03125 15.003906 19.03125 Z M 15.003906 19.03125 " fill-opacity="1" fill-rule="nonzero"/></g><g clip-path="url(#b9c6dd069f)"><path fill="#fd3985" d="M 15.003906 0.00390625 C 6.988281 0.00390625 0.488281 6.5 0.488281 14.515625 C 0.488281 16.445312 0.855469 18.300781 1.59375 20.082031 C 2.335938 21.863281 3.390625 23.433594 4.757812 24.796875 C 4.871094 24.613281 4.980469 24.414062 5.09375 24.203125 C 5.425781 23.585938 5.972656 23.0625 6.648438 22.863281 C 7.320312 22.664062 8.117188 22.832031 8.578125 23.363281 C 8.941406 23.785156 9.0625 24.359375 9.292969 24.867188 C 9.761719 25.878906 10.777344 26.648438 11.890625 26.722656 C 13.003906 26.800781 14.15625 26.132812 14.5625 25.089844 C 14.78125 24.515625 14.851562 23.78125 15.402344 23.515625 C 15.71875 23.363281 16.046875 23.429688 16.371094 23.582031 C 16.535156 23.664062 16.695312 23.757812 16.847656 23.859375 C 18.003906 24.828125 20.507812 25.140625 20.753906 23.515625 C 20.941406 22.578125 20.441406 21.453125 21.066406 20.578125 C 21.179688 20.410156 21.316406 20.273438 21.480469 20.15625 C 22.320312 19.59375 23.324219 20.402344 24.296875 20.496094 C 24.496094 20.519531 24.6875 20.503906 24.878906 20.453125 C 25.0625 20.328125 25.3125 20.265625 25.4375 20.078125 C 25.8125 19.015625 25.5625 17.828125 26.25 16.828125 C 26.9375 15.953125 27.9375 16.765625 28.757812 16.90625 C 28.9375 16.949219 29.121094 16.96875 29.308594 16.972656 C 29.445312 16.160156 29.515625 15.339844 29.515625 14.515625 C 29.515625 6.5 23.019531 0.00390625 15.003906 0.00390625 Z M 15.039062 17.714844 C 14.757812 17.722656 14.480469 17.707031 14.199219 17.675781 C 11.957031 17.410156 9.929688 15.792969 9.167969 13.671875 C 8.910156 12.945312 8.625 11.488281 9.328125 10.898438 C 9.636719 10.636719 10.28125 10.574219 10.65625 10.347656 C 11.132812 10.054688 11.539062 9.683594 11.867188 9.230469 C 12.347656 8.570312 12.808594 7.664062 13.625 7.683594 C 14.378906 7.703125 14.835938 8.53125 15.519531 8.851562 C 16.304688 9.222656 17.230469 8.863281 18.097656 8.925781 C 19.371094 9.015625 20.449219 10.082031 20.765625 11.316406 C 21.085938 12.550781 20.734375 13.894531 20.03125 14.960938 C 18.945312 16.613281 17.011719 17.65625 15.039062 17.714844 Z M 15.039062 17.714844 " fill-opacity="1" fill-rule="nonzero"/></g><g clip-path="url(#fbc5666629)"><path fill="#ff699e" d="M 12.066406 24.128906 C 12.019531 24.128906 11.976562 24.128906 11.929688 24.125 C 10.527344 24.035156 10.128906 22.949219 9.539062 21.96875 C 9.441406 21.804688 9.335938 21.644531 9.222656 21.492188 C 8.875 21.015625 8.441406 20.640625 7.785156 20.527344 C 7.597656 20.492188 7.40625 20.484375 7.214844 20.5 C 6.640625 20.546875 6.070312 20.800781 5.601562 21.191406 C 5.351562 21.398438 5.113281 21.640625 4.804688 21.734375 C 3.636719 22.085938 2.417969 18.914062 2.082031 18.117188 C 1.417969 16.558594 1.097656 14.933594 1.121094 13.238281 C 1.234375 5.835938 8.046875 0.644531 15.109375 0.621094 C 18.863281 0.605469 22.628906 2.101562 25.246094 4.789062 C 27.027344 6.621094 28.300781 9.027344 28.765625 11.542969 C 28.917969 12.371094 29.101562 13.300781 28.984375 14.144531 C 28.773438 15.683594 27.488281 14.566406 26.402344 14.675781 C 26.183594 14.691406 25.976562 14.746094 25.78125 14.839844 C 25.628906 14.914062 25.5 15.019531 25.394531 15.152344 C 24.816406 16.082031 25.316406 17.582031 24.441406 18.082031 C 23.378906 18.582031 21.878906 17.894531 20.890625 18.96875 C 20.785156 19.070312 20.6875 19.179688 20.601562 19.300781 C 20.421875 19.542969 20.292969 19.808594 20.222656 20.101562 C 20.171875 20.292969 20.144531 20.484375 20.140625 20.683594 C 20.140625 20.882812 20.152344 21.074219 20.171875 21.261719 C 20.164062 21.433594 20.125 21.597656 20.050781 21.753906 C 19.96875 21.917969 19.847656 22.046875 19.6875 22.132812 C 19.351562 22.328125 18.996094 22.375 18.621094 22.277344 C 18.441406 22.230469 18.265625 22.167969 18.097656 22.089844 C 17.976562 22.042969 17.863281 21.988281 17.75 21.921875 C 17.632812 21.855469 17.527344 21.777344 17.414062 21.703125 C 16.941406 21.269531 16.191406 21.019531 15.582031 21.242188 C 15.414062 21.289062 15.253906 21.355469 15.101562 21.441406 C 14.792969 21.609375 14.546875 21.84375 14.363281 22.144531 C 14.28125 22.285156 14.214844 22.429688 14.167969 22.585938 C 14.058594 22.789062 13.941406 22.996094 13.808594 23.195312 C 13.617188 23.484375 13.363281 23.714844 13.054688 23.878906 C 12.746094 24.042969 12.417969 24.128906 12.066406 24.128906 Z M 13.597656 6.558594 C 12.59375 6.558594 12.027344 7.320312 11.578125 7.933594 C 11.503906 8.035156 11.429688 8.132812 11.359375 8.222656 C 11.074219 8.582031 10.730469 8.875 10.328125 9.097656 C 10.175781 9.167969 10.019531 9.222656 9.855469 9.261719 C 7.765625 9.851562 7.761719 12.59375 8.296875 14.347656 C 8.929688 16.410156 10.582031 18.085938 12.628906 18.769531 C 15.066406 19.539062 17.871094 18.636719 19.851562 17.148438 C 21.828125 15.660156 21.679688 13.285156 21.496094 11.042969 C 21.476562 10.804688 21.433594 10.570312 21.371094 10.339844 C 20.703125 7.957031 18.621094 7.765625 16.5625 7.785156 C 15.363281 7.796875 14.820312 6.585938 13.640625 6.558594 Z M 13.597656 6.558594 " fill-opacity="1" fill-rule="nonzero"/></g><path fill="#edbb79" d="M 9.710938 13.019531 C 9.429688 12.890625 9.292969 12.554688 9.3125 12.246094 C 9.328125 12.007812 9.410156 11.800781 9.566406 11.621094 C 9.769531 11.390625 10.070312 11.269531 10.347656 11.125 C 10.976562 10.796875 11.488281 10.339844 11.886719 9.753906 C 12.222656 9.265625 12.515625 8.660156 13.085938 8.511719 C 13.410156 8.425781 13.757812 8.515625 14.058594 8.664062 C 14.363281 8.8125 14.632812 9.015625 14.929688 9.171875 C 15.308594 9.375 15.710938 9.496094 16.136719 9.539062 C 16.675781 9.59375 17.21875 9.515625 17.761719 9.523438 C 18.414062 9.53125 19.089844 9.683594 19.605469 10.082031 C 20.125 10.484375 20.453125 11.171875 20.304688 11.808594 C 20.246094 12.0625 20.074219 12.332031 19.816406 12.363281 C 19.578125 12.390625 19.359375 12.21875 19.234375 12.011719 C 19.109375 11.808594 19.054688 11.574219 18.949219 11.359375 C 18.609375 10.65625 17.824219 10.304688 17.078125 10.078125 C 16.292969 9.839844 15.492188 9.675781 14.675781 9.589844 C 14.3125 9.554688 13.945312 9.53125 13.589844 9.589844 C 12.816406 9.714844 12.140625 10.199219 11.636719 10.796875 C 11.222656 11.289062 10.894531 11.855469 10.613281 12.429688 C 10.449219 12.761719 10.179688 13.238281 9.710938 13.019531 Z M 9.710938 13.019531 " fill-opacity="1" fill-rule="nonzero"/><path fill="#edbb79" d="M 7.292969 23.90625 C 6.546875 23.789062 5.832031 24.007812 6.136719 24.898438 C 6.25 25.230469 6.515625 25.484375 6.785156 25.707031 C 7.816406 26.546875 9.054688 27.089844 10.308594 27.523438 C 12.28125 28.207031 14.371094 28.648438 16.457031 28.488281 C 18.589844 28.324219 20.632812 27.519531 22.410156 26.351562 C 24.089844 25.246094 26.1875 23.574219 26.933594 21.644531 C 27.210938 20.929688 26.796875 20.042969 25.949219 20.316406 C 25.328125 20.511719 24.929688 21.273438 24.269531 21.351562 C 23.921875 21.394531 23.597656 21.191406 23.292969 21.023438 C 22.59375 20.636719 21.871094 20.851562 21.558594 21.613281 C 21.136719 22.660156 21.703125 23.855469 20.902344 24.777344 C 20.027344 25.785156 18.65625 25.519531 17.609375 24.96875 C 17.203125 24.753906 16.632812 24.238281 16.167969 24.191406 C 15.277344 24.101562 14.996094 25.332031 14.605469 25.882812 C 14.039062 26.683594 13.007812 27.179688 12.039062 27.191406 C 11.007812 27.207031 10.203125 26.730469 9.5625 25.953125 C 8.84375 25.078125 8.542969 24.09375 7.292969 23.90625 Z M 7.292969 23.90625 " fill-opacity="1" fill-rule="nonzero"/><path fill="#fd74aa" d="M 17.363281 18.980469 C 18.191406 18.648438 18.964844 18.214844 19.683594 17.6875 C 20.429688 17.136719 21.082031 16.257812 22.113281 16.375 C 22.664062 16.433594 23.320312 16.699219 23.070312 17.375 C 22.996094 17.578125 22.777344 17.6875 22.578125 17.777344 C 21.867188 18.09375 20.832031 18.351562 20.261719 18.890625 C 19.640625 19.480469 19.921875 20.46875 19.539062 21.171875 C 19.359375 21.503906 19 21.769531 18.625 21.722656 C 17.9375 21.636719 17.628906 20.773438 16.953125 20.585938 C 16.105469 20.355469 15.390625 21.042969 14.570312 21.089844 C 14.339844 21.101562 14.085938 21.003906 13.984375 20.796875 C 13.402344 19.59375 16.257812 19.371094 16.835938 19.175781 C 17.011719 19.113281 17.1875 19.050781 17.363281 18.980469 Z M 17.363281 18.980469 " fill-opacity="1" fill-rule="nonzero"/><path fill="#fd74aa" d="M 15.652344 5.269531 C 17.277344 5.78125 18.878906 5.691406 20.398438 6.632812 C 21.382812 7.25 22.214844 8.15625 22.609375 9.246094 C 23.066406 10.5 23.015625 12.757812 24.695312 13.070312 C 25.5 13.21875 26.558594 12.863281 27.03125 12.167969 C 28.207031 10.429688 26.332031 7.367188 25.222656 6.054688 C 23.824219 4.402344 21.898438 3.164062 19.804688 2.621094 C 18.546875 2.292969 17.097656 2.085938 15.832031 2.457031 C 15.242188 2.632812 14.519531 2.980469 14.382812 3.648438 C 14.222656 4.425781 14.988281 5.058594 15.652344 5.269531 Z M 15.652344 5.269531 " fill-opacity="1" fill-rule="nonzero"/><path fill="#fd74aa" d="M 6.90625 10.644531 C 6.757812 10.277344 6.550781 9.929688 6.210938 9.738281 C 5.09375 9.109375 3.886719 10.367188 3.375 11.234375 C 2.78125 12.246094 2.5625 13.457031 2.570312 14.621094 C 2.574219 15.4375 2.679688 16.265625 2.992188 17.019531 C 3.308594 17.777344 3.84375 18.457031 4.566406 18.839844 C 5.445312 19.304688 6.484375 19.292969 7.472656 19.371094 C 8.464844 19.445312 9.535156 19.664062 10.171875 20.429688 C 10.457031 20.78125 10.75 21.273438 11.195312 21.199219 C 12.375 20.996094 11.164062 19.457031 10.726562 19.085938 C 9.742188 18.253906 8.335938 17.8125 7.71875 16.601562 C 7.234375 15.648438 7.429688 14.507812 7.421875 13.4375 C 7.417969 12.5625 7.273438 11.707031 6.992188 10.878906 C 6.964844 10.800781 6.9375 10.722656 6.90625 10.644531 Z M 6.90625 10.644531 " fill-opacity="1" fill-rule="nonzero"/><path fill="#f9c3cb" d="M 5.800781 5.335938 C 4.890625 6.234375 4.597656 7.703125 5.550781 8.710938 C 5.773438 8.949219 6.058594 9.140625 6.382812 9.179688 C 7.023438 9.261719 7.582031 8.738281 7.894531 8.175781 C 8.203125 7.617188 8.378906 6.972656 8.785156 6.476562 C 9.4375 5.6875 10.484375 5.460938 11.367188 5.039062 C 11.765625 4.847656 12.347656 4.625 12.378906 4.121094 C 12.410156 3.617188 11.882812 3.171875 11.476562 2.96875 C 10.933594 2.703125 10.332031 2.949219 9.792969 3.144531 C 8.371094 3.671875 6.878906 4.273438 5.800781 5.335938 Z M 5.800781 5.335938 " fill-opacity="0.7" fill-rule="nonzero"/><path fill="#f9c3cb" d="M 12.585938 3.167969 C 12.628906 3.292969 12.742188 3.402344 12.929688 3.460938 C 13.199219 3.554688 13.535156 3.496094 13.855469 3.382812 C 14.84375 3.035156 13.980469 1.988281 13.222656 2.292969 C 12.734375 2.492188 12.480469 2.882812 12.585938 3.167969 Z M 12.585938 3.167969 " fill-opacity="0.7" fill-rule="nonzero"/><path fill="#f9c3cb" d="M 18.992188 2.324219 C 18.367188 2.457031 19.09375 2.96875 19.28125 3.132812 C 19.398438 3.25 19.539062 3.339844 19.695312 3.402344 C 19.851562 3.453125 20.042969 3.4375 20.160156 3.316406 C 20.707031 2.765625 19.390625 2.242188 18.992188 2.324219 Z M 18.992188 2.324219 " fill-opacity="0.7" fill-rule="nonzero"/><path fill="#f9c3cb" d="M 21.441406 3.378906 C 21.40625 3.414062 21.382812 3.453125 21.371094 3.503906 C 21.300781 3.839844 22.628906 4.710938 22.5625 3.710938 C 22.539062 3.34375 21.703125 3.136719 21.441406 3.378906 Z M 21.441406 3.378906 " fill-opacity="0.7" fill-rule="nonzero"/><path fill="#f9c3cb" d="M 23.515625 4.929688 L 23.523438 4.929688 C 23.59375 4.867188 23.601562 4.796875 23.554688 4.714844 C 23.503906 4.597656 23.410156 4.542969 23.296875 4.589844 C 23.128906 4.652344 23.425781 4.910156 23.515625 4.929688 Z M 23.515625 4.929688 " fill-opacity="0.7" fill-rule="nonzero"/><path fill="#f9c3cb" d="M 3.761719 20.929688 C 4.503906 21.890625 5.753906 21.140625 6.257812 20.390625 C 6.316406 20.265625 6.382812 20.078125 6.316406 19.890625 C 6.257812 19.578125 5.882812 19.578125 5.628906 19.703125 C 5.253906 20.015625 4.992188 20.707031 4.554688 20.519531 C 3.992188 20.332031 4.378906 19.203125 4.007812 18.765625 C 3.753906 18.578125 3.382812 18.703125 3.257812 19.015625 C 3.007812 19.703125 3.445312 20.390625 3.757812 20.925781 Z M 3.761719 20.929688 " fill-opacity="0.7" fill-rule="nonzero"/><path fill="#f9c3cb" d="M 12.640625 25.910156 C 12.917969 25.800781 13.160156 25.644531 13.371094 25.4375 C 13.839844 25.003906 14.59375 23.585938 13.570312 23.285156 C 12.785156 23.050781 12.71875 24.441406 12.109375 24.625 C 11.714844 24.738281 11.3125 24.179688 11.023438 24 C 10.820312 23.875 10.253906 23.789062 10.054688 23.953125 C 9.585938 24.34375 10.699219 25.09375 10.960938 25.355469 C 11.441406 25.835938 11.945312 26.164062 12.640625 25.910156 Z M 12.640625 25.910156 " fill-opacity="0.7" fill-rule="nonzero"/><path fill="#f9c3cb" d="M 18.125 22.542969 C 17.746094 22.425781 17 22.527344 17.128906 23.078125 C 17.316406 23.890625 18.378906 24.203125 19.191406 24.078125 C 20.566406 23.890625 20.753906 22.203125 20.441406 21.078125 C 20.378906 20.890625 20.253906 20.765625 20.066406 20.828125 C 19.503906 21.265625 19.691406 22.078125 19.378906 22.640625 C 19.023438 23.277344 18.597656 22.730469 18.171875 22.558594 C 18.15625 22.554688 18.140625 22.546875 18.125 22.542969 Z M 18.125 22.542969 " fill-opacity="0.7" fill-rule="nonzero"/><path fill="#f9c3cb" d="M 23.683594 19.730469 C 23.925781 19.78125 24.164062 19.773438 24.40625 19.710938 C 25.097656 19.511719 25.597656 17.363281 24.667969 17.199219 C 24.441406 17.160156 24.269531 17.410156 24.191406 17.632812 C 24.074219 17.96875 24.171875 18.957031 23.652344 18.832031 C 23.441406 18.78125 23.28125 18.597656 23.085938 18.511719 C 22.792969 18.382812 22.316406 18.449219 22.273438 18.835938 C 22.214844 19.351562 23.027344 19.585938 23.378906 19.667969 C 23.480469 19.691406 23.582031 19.714844 23.683594 19.730469 Z M 23.683594 19.730469 " fill-opacity="0.7" fill-rule="nonzero"/></g><g id="5b7598ee3c" mask="url(#4b1fc123a2)" filter="url(#5d8aeefd68)"><rect x="0" width="43.2" fill="#000000" y="0" height="43.200001" fill-opacity="1"/></g><g id="49270582bd" mask="url(#30ace3e2dc)"><g><g transform="translate(6.6, 6.6)"><g clip-path="url(#0e1f88797f)"><path fill="#d99858" d="M 15.003906 0.00390625 C 6.988281 0.00390625 0.488281 6.5 0.488281 14.515625 C 0.488281 22.53125 6.988281 29.03125 15.003906 29.03125 C 23.019531 29.03125 29.515625 22.53125 29.515625 14.515625 C 29.515625 6.5 23.019531 0.00390625 15.003906 0.00390625 Z M 15.003906 19.03125 C 14.707031 19.03125 14.414062 19 14.121094 18.945312 C 13.832031 18.886719 13.550781 18.800781 13.277344 18.6875 C 13 18.574219 12.742188 18.433594 12.496094 18.269531 C 12.25 18.105469 12.019531 17.917969 11.8125 17.707031 C 11.601562 17.5 11.414062 17.269531 11.25 17.023438 C 11.085938 16.777344 10.945312 16.515625 10.832031 16.242188 C 10.71875 15.96875 10.632812 15.6875 10.574219 15.398438 C 10.519531 15.105469 10.488281 14.8125 10.488281 14.515625 C 10.488281 14.21875 10.519531 13.925781 10.574219 13.636719 C 10.632812 13.34375 10.71875 13.0625 10.832031 12.789062 C 10.945312 12.515625 11.085938 12.253906 11.25 12.007812 C 11.414062 11.761719 11.601562 11.535156 11.8125 11.324219 C 12.019531 11.113281 12.25 10.925781 12.496094 10.761719 C 12.742188 10.597656 13 10.460938 13.277344 10.34375 C 13.550781 10.230469 13.832031 10.148438 14.121094 10.089844 C 14.414062 10.03125 14.707031 10 15.003906 10 C 15.300781 10 15.59375 10.03125 15.882812 10.089844 C 16.175781 10.148438 16.457031 10.230469 16.730469 10.34375 C 17.003906 10.460938 17.265625 10.597656 17.511719 10.761719 C 17.757812 10.925781 17.984375 11.113281 18.195312 11.324219 C 18.40625 11.535156 18.589844 11.761719 18.757812 12.007812 C 18.921875 12.253906 19.058594 12.515625 19.171875 12.789062 C 19.285156 13.0625 19.371094 13.34375 19.429688 13.636719 C 19.488281 13.925781 19.515625 14.21875 19.515625 14.515625 C 19.515625 14.8125 19.488281 15.105469 19.429688 15.394531 C 19.371094 15.6875 19.285156 15.96875 19.171875 16.242188 C 19.058594 16.515625 18.917969 16.777344 18.753906 17.023438 C 18.589844 17.269531 18.402344 17.496094 18.195312 17.707031 C 17.984375 17.917969 17.757812 18.101562 17.507812 18.269531 C 17.261719 18.433594 17.003906 18.570312 16.730469 18.683594 C 16.457031 18.800781 16.171875 18.882812 15.882812 18.941406 C 15.59375 19 15.300781 19.03125 15.003906 19.03125 Z M 15.003906 19.03125 " fill-opacity="1" fill-rule="nonzero"/></g><g clip-path="url(#b9c6dd069f)"><path fill="#fd3985" d="M 15.003906 0.00390625 C 6.988281 0.00390625 0.488281 6.5 0.488281 14.515625 C 0.488281 16.445312 0.855469 18.300781 1.59375 20.082031 C 2.335938 21.863281 3.390625 23.433594 4.757812 24.796875 C 4.871094 24.613281 4.980469 24.414062 5.09375 24.203125 C 5.425781 23.585938 5.972656 23.0625 6.648438 22.863281 C 7.320312 22.664062 8.117188 22.832031 8.578125 23.363281 C 8.941406 23.785156 9.0625 24.359375 9.292969 24.867188 C 9.761719 25.878906 10.777344 26.648438 11.890625 26.722656 C 13.003906 26.800781 14.15625 26.132812 14.5625 25.089844 C 14.78125 24.515625 14.851562 23.78125 15.402344 23.515625 C 15.71875 23.363281 16.046875 23.429688 16.371094 23.582031 C 16.535156 23.664062 16.695312 23.757812 16.847656 23.859375 C 18.003906 24.828125 20.507812 25.140625 20.753906 23.515625 C 20.941406 22.578125 20.441406 21.453125 21.066406 20.578125 C 21.179688 20.410156 21.316406 20.273438 21.480469 20.15625 C 22.320312 19.59375 23.324219 20.402344 24.296875 20.496094 C 24.496094 20.519531 24.6875 20.503906 24.878906 20.453125 C 25.0625 20.328125 25.3125 20.265625 25.4375 20.078125 C 25.8125 19.015625 25.5625 17.828125 26.25 16.828125 C 26.9375 15.953125 27.9375 16.765625 28.757812 16.90625 C 28.9375 16.949219 29.121094 16.96875 29.308594 16.972656 C 29.445312 16.160156 29.515625 15.339844 29.515625 14.515625 C 29.515625 6.5 23.019531 0.00390625 15.003906 0.00390625 Z M 15.039062 17.714844 C 14.757812 17.722656 14.480469 17.707031 14.199219 17.675781 C 11.957031 17.410156 9.929688 15.792969 9.167969 13.671875 C 8.910156 12.945312 8.625 11.488281 9.328125 10.898438 C 9.636719 10.636719 10.28125 10.574219 10.65625 10.347656 C 11.132812 10.054688 11.539062 9.683594 11.867188 9.230469 C 12.347656 8.570312 12.808594 7.664062 13.625 7.683594 C 14.378906 7.703125 14.835938 8.53125 15.519531 8.851562 C 16.304688 9.222656 17.230469 8.863281 18.097656 8.925781 C 19.371094 9.015625 20.449219 10.082031 20.765625 11.316406 C 21.085938 12.550781 20.734375 13.894531 20.03125 14.960938 C 18.945312 16.613281 17.011719 17.65625 15.039062 17.714844 Z M 15.039062 17.714844 " fill-opacity="1" fill-rule="nonzero"/></g><g clip-path="url(#fbc5666629)"><path fill="#ff699e" d="M 12.066406 24.128906 C 12.019531 24.128906 11.976562 24.128906 11.929688 24.125 C 10.527344 24.035156 10.128906 22.949219 9.539062 21.96875 C 9.441406 21.804688 9.335938 21.644531 9.222656 21.492188 C 8.875 21.015625 8.441406 20.640625 7.785156 20.527344 C 7.597656 20.492188 7.40625 20.484375 7.214844 20.5 C 6.640625 20.546875 6.070312 20.800781 5.601562 21.191406 C 5.351562 21.398438 5.113281 21.640625 4.804688 21.734375 C 3.636719 22.085938 2.417969 18.914062 2.082031 18.117188 C 1.417969 16.558594 1.097656 14.933594 1.121094 13.238281 C 1.234375 5.835938 8.046875 0.644531 15.109375 0.621094 C 18.863281 0.605469 22.628906 2.101562 25.246094 4.789062 C 27.027344 6.621094 28.300781 9.027344 28.765625 11.542969 C 28.917969 12.371094 29.101562 13.300781 28.984375 14.144531 C 28.773438 15.683594 27.488281 14.566406 26.402344 14.675781 C 26.183594 14.691406 25.976562 14.746094 25.78125 14.839844 C 25.628906 14.914062 25.5 15.019531 25.394531 15.152344 C 24.816406 16.082031 25.316406 17.582031 24.441406 18.082031 C 23.378906 18.582031 21.878906 17.894531 20.890625 18.96875 C 20.785156 19.070312 20.6875 19.179688 20.601562 19.300781 C 20.421875 19.542969 20.292969 19.808594 20.222656 20.101562 C 20.171875 20.292969 20.144531 20.484375 20.140625 20.683594 C 20.140625 20.882812 20.152344 21.074219 20.171875 21.261719 C 20.164062 21.433594 20.125 21.597656 20.050781 21.753906 C 19.96875 21.917969 19.847656 22.046875 19.6875 22.132812 C 19.351562 22.328125 18.996094 22.375 18.621094 22.277344 C 18.441406 22.230469 18.265625 22.167969 18.097656 22.089844 C 17.976562 22.042969 17.863281 21.988281 17.75 21.921875 C 17.632812 21.855469 17.527344 21.777344 17.414062 21.703125 C 16.941406 21.269531 16.191406 21.019531 15.582031 21.242188 C 15.414062 21.289062 15.253906 21.355469 15.101562 21.441406 C 14.792969 21.609375 14.546875 21.84375 14.363281 22.144531 C 14.28125 22.285156 14.214844 22.429688 14.167969 22.585938 C 14.058594 22.789062 13.941406 22.996094 13.808594 23.195312 C 13.617188 23.484375 13.363281 23.714844 13.054688 23.878906 C 12.746094 24.042969 12.417969 24.128906 12.066406 24.128906 Z M 13.597656 6.558594 C 12.59375 6.558594 12.027344 7.320312 11.578125 7.933594 C 11.503906 8.035156 11.429688 8.132812 11.359375 8.222656 C 11.074219 8.582031 10.730469 8.875 10.328125 9.097656 C 10.175781 9.167969 10.019531 9.222656 9.855469 9.261719 C 7.765625 9.851562 7.761719 12.59375 8.296875 14.347656 C 8.929688 16.410156 10.582031 18.085938 12.628906 18.769531 C 15.066406 19.539062 17.871094 18.636719 19.851562 17.148438 C 21.828125 15.660156 21.679688 13.285156 21.496094 11.042969 C 21.476562 10.804688 21.433594 10.570312 21.371094 10.339844 C 20.703125 7.957031 18.621094 7.765625 16.5625 7.785156 C 15.363281 7.796875 14.820312 6.585938 13.640625 6.558594 Z M 13.597656 6.558594 " fill-opacity="1" fill-rule="nonzero"/></g><path fill="#edbb79" d="M 9.710938 13.019531 C 9.429688 12.890625 9.292969 12.554688 9.3125 12.246094 C 9.328125 12.007812 9.410156 11.800781 9.566406 11.621094 C 9.769531 11.390625 10.070312 11.269531 10.347656 11.125 C 10.976562 10.796875 11.488281 10.339844 11.886719 9.753906 C 12.222656 9.265625 12.515625 8.660156 13.085938 8.511719 C 13.410156 8.425781 13.757812 8.515625 14.058594 8.664062 C 14.363281 8.8125 14.632812 9.015625 14.929688 9.171875 C 15.308594 9.375 15.710938 9.496094 16.136719 9.539062 C 16.675781 9.59375 17.21875 9.515625 17.761719 9.523438 C 18.414062 9.53125 19.089844 9.683594 19.605469 10.082031 C 20.125 10.484375 20.453125 11.171875 20.304688 11.808594 C 20.246094 12.0625 20.074219 12.332031 19.816406 12.363281 C 19.578125 12.390625 19.359375 12.21875 19.234375 12.011719 C 19.109375 11.808594 19.054688 11.574219 18.949219 11.359375 C 18.609375 10.65625 17.824219 10.304688 17.078125 10.078125 C 16.292969 9.839844 15.492188 9.675781 14.675781 9.589844 C 14.3125 9.554688 13.945312 9.53125 13.589844 9.589844 C 12.816406 9.714844 12.140625 10.199219 11.636719 10.796875 C 11.222656 11.289062 10.894531 11.855469 10.613281 12.429688 C 10.449219 12.761719 10.179688 13.238281 9.710938 13.019531 Z M 9.710938 13.019531 " fill-opacity="1" fill-rule="nonzero"/><path fill="#edbb79" d="M 7.292969 23.90625 C 6.546875 23.789062 5.832031 24.007812 6.136719 24.898438 C 6.25 25.230469 6.515625 25.484375 6.785156 25.707031 C 7.816406 26.546875 9.054688 27.089844 10.308594 27.523438 C 12.28125 28.207031 14.371094 28.648438 16.457031 28.488281 C 18.589844 28.324219 20.632812 27.519531 22.410156 26.351562 C 24.089844 25.246094 26.1875 23.574219 26.933594 21.644531 C 27.210938 20.929688 26.796875 20.042969 25.949219 20.316406 C 25.328125 20.511719 24.929688 21.273438 24.269531 21.351562 C 23.921875 21.394531 23.597656 21.191406 23.292969 21.023438 C 22.59375 20.636719 21.871094 20.851562 21.558594 21.613281 C 21.136719 22.660156 21.703125 23.855469 20.902344 24.777344 C 20.027344 25.785156 18.65625 25.519531 17.609375 24.96875 C 17.203125 24.753906 16.632812 24.238281 16.167969 24.191406 C 15.277344 24.101562 14.996094 25.332031 14.605469 25.882812 C 14.039062 26.683594 13.007812 27.179688 12.039062 27.191406 C 11.007812 27.207031 10.203125 26.730469 9.5625 25.953125 C 8.84375 25.078125 8.542969 24.09375 7.292969 23.90625 Z M 7.292969 23.90625 " fill-opacity="1" fill-rule="nonzero"/><path fill="#fd74aa" d="M 17.363281 18.980469 C 18.191406 18.648438 18.964844 18.214844 19.683594 17.6875 C 20.429688 17.136719 21.082031 16.257812 22.113281 16.375 C 22.664062 16.433594 23.320312 16.699219 23.070312 17.375 C 22.996094 17.578125 22.777344 17.6875 22.578125 17.777344 C 21.867188 18.09375 20.832031 18.351562 20.261719 18.890625 C 19.640625 19.480469 19.921875 20.46875 19.539062 21.171875 C 19.359375 21.503906 19 21.769531 18.625 21.722656 C 17.9375 21.636719 17.628906 20.773438 16.953125 20.585938 C 16.105469 20.355469 15.390625 21.042969 14.570312 21.089844 C 14.339844 21.101562 14.085938 21.003906 13.984375 20.796875 C 13.402344 19.59375 16.257812 19.371094 16.835938 19.175781 C 17.011719 19.113281 17.1875 19.050781 17.363281 18.980469 Z M 17.363281 18.980469 " fill-opacity="1" fill-rule="nonzero"/><path fill="#fd74aa" d="M 15.652344 5.269531 C 17.277344 5.78125 18.878906 5.691406 20.398438 6.632812 C 21.382812 7.25 22.214844 8.15625 22.609375 9.246094 C 23.066406 10.5 23.015625 12.757812 24.695312 13.070312 C 25.5 13.21875 26.558594 12.863281 27.03125 12.167969 C 28.207031 10.429688 26.332031 7.367188 25.222656 6.054688 C 23.824219 4.402344 21.898438 3.164062 19.804688 2.621094 C 18.546875 2.292969 17.097656 2.085938 15.832031 2.457031 C 15.242188 2.632812 14.519531 2.980469 14.382812 3.648438 C 14.222656 4.425781 14.988281 5.058594 15.652344 5.269531 Z M 15.652344 5.269531 " fill-opacity="1" fill-rule="nonzero"/><path fill="#fd74aa" d="M 6.90625 10.644531 C 6.757812 10.277344 6.550781 9.929688 6.210938 9.738281 C 5.09375 9.109375 3.886719 10.367188 3.375 11.234375 C 2.78125 12.246094 2.5625 13.457031 2.570312 14.621094 C 2.574219 15.4375 2.679688 16.265625 2.992188 17.019531 C 3.308594 17.777344 3.84375 18.457031 4.566406 18.839844 C 5.445312 19.304688 6.484375 19.292969 7.472656 19.371094 C 8.464844 19.445312 9.535156 19.664062 10.171875 20.429688 C 10.457031 20.78125 10.75 21.273438 11.195312 21.199219 C 12.375 20.996094 11.164062 19.457031 10.726562 19.085938 C 9.742188 18.253906 8.335938 17.8125 7.71875 16.601562 C 7.234375 15.648438 7.429688 14.507812 7.421875 13.4375 C 7.417969 12.5625 7.273438 11.707031 6.992188 10.878906 C 6.964844 10.800781 6.9375 10.722656 6.90625 10.644531 Z M 6.90625 10.644531 " fill-opacity="1" fill-rule="nonzero"/><path fill="#f9c3cb" d="M 5.800781 5.335938 C 4.890625 6.234375 4.597656 7.703125 5.550781 8.710938 C 5.773438 8.949219 6.058594 9.140625 6.382812 9.179688 C 7.023438 9.261719 7.582031 8.738281 7.894531 8.175781 C 8.203125 7.617188 8.378906 6.972656 8.785156 6.476562 C 9.4375 5.6875 10.484375 5.460938 11.367188 5.039062 C 11.765625 4.847656 12.347656 4.625 12.378906 4.121094 C 12.410156 3.617188 11.882812 3.171875 11.476562 2.96875 C 10.933594 2.703125 10.332031 2.949219 9.792969 3.144531 C 8.371094 3.671875 6.878906 4.273438 5.800781 5.335938 Z M 5.800781 5.335938 " fill-opacity="0.7" fill-rule="nonzero"/><path fill="#f9c3cb" d="M 12.585938 3.167969 C 12.628906 3.292969 12.742188 3.402344 12.929688 3.460938 C 13.199219 3.554688 13.535156 3.496094 13.855469 3.382812 C 14.84375 3.035156 13.980469 1.988281 13.222656 2.292969 C 12.734375 2.492188 12.480469 2.882812 12.585938 3.167969 Z M 12.585938 3.167969 " fill-opacity="0.7" fill-rule="nonzero"/><path fill="#f9c3cb" d="M 18.992188 2.324219 C 18.367188 2.457031 19.09375 2.96875 19.28125 3.132812 C 19.398438 3.25 19.539062 3.339844 19.695312 3.402344 C 19.851562 3.453125 20.042969 3.4375 20.160156 3.316406 C 20.707031 2.765625 19.390625 2.242188 18.992188 2.324219 Z M 18.992188 2.324219 " fill-opacity="0.7" fill-rule="nonzero"/><path fill="#f9c3cb" d="M 21.441406 3.378906 C 21.40625 3.414062 21.382812 3.453125 21.371094 3.503906 C 21.300781 3.839844 22.628906 4.710938 22.5625 3.710938 C 22.539062 3.34375 21.703125 3.136719 21.441406 3.378906 Z M 21.441406 3.378906 " fill-opacity="0.7" fill-rule="nonzero"/><path fill="#f9c3cb" d="M 23.515625 4.929688 L 23.523438 4.929688 C 23.59375 4.867188 23.601562 4.796875 23.554688 4.714844 C 23.503906 4.597656 23.410156 4.542969 23.296875 4.589844 C 23.128906 4.652344 23.425781 4.910156 23.515625 4.929688 Z M 23.515625 4.929688 " fill-opacity="0.7" fill-rule="nonzero"/><path fill="#f9c3cb" d="M 3.761719 20.929688 C 4.503906 21.890625 5.753906 21.140625 6.257812 20.390625 C 6.316406 20.265625 6.382812 20.078125 6.316406 19.890625 C 6.257812 19.578125 5.882812 19.578125 5.628906 19.703125 C 5.253906 20.015625 4.992188 20.707031 4.554688 20.519531 C 3.992188 20.332031 4.378906 19.203125 4.007812 18.765625 C 3.753906 18.578125 3.382812 18.703125 3.257812 19.015625 C 3.007812 19.703125 3.445312 20.390625 3.757812 20.925781 Z M 3.761719 20.929688 " fill-opacity="0.7" fill-rule="nonzero"/><path fill="#f9c3cb" d="M 12.640625 25.910156 C 12.917969 25.800781 13.160156 25.644531 13.371094 25.4375 C 13.839844 25.003906 14.59375 23.585938 13.570312 23.285156 C 12.785156 23.050781 12.71875 24.441406 12.109375 24.625 C 11.714844 24.738281 11.3125 24.179688 11.023438 24 C 10.820312 23.875 10.253906 23.789062 10.054688 23.953125 C 9.585938 24.34375 10.699219 25.09375 10.960938 25.355469 C 11.441406 25.835938 11.945312 26.164062 12.640625 25.910156 Z M 12.640625 25.910156 " fill-opacity="0.7" fill-rule="nonzero"/><path fill="#f9c3cb" d="M 18.125 22.542969 C 17.746094 22.425781 17 22.527344 17.128906 23.078125 C 17.316406 23.890625 18.378906 24.203125 19.191406 24.078125 C 20.566406 23.890625 20.753906 22.203125 20.441406 21.078125 C 20.378906 20.890625 20.253906 20.765625 20.066406 20.828125 C 19.503906 21.265625 19.691406 22.078125 19.378906 22.640625 C 19.023438 23.277344 18.597656 22.730469 18.171875 22.558594 C 18.15625 22.554688 18.140625 22.546875 18.125 22.542969 Z M 18.125 22.542969 " fill-opacity="0.7" fill-rule="nonzero"/><path fill="#f9c3cb" d="M 23.683594 19.730469 C 23.925781 19.78125 24.164062 19.773438 24.40625 19.710938 C 25.097656 19.511719 25.597656 17.363281 24.667969 17.199219 C 24.441406 17.160156 24.269531 17.410156 24.191406 17.632812 C 24.074219 17.96875 24.171875 18.957031 23.652344 18.832031 C 23.441406 18.78125 23.28125 18.597656 23.085938 18.511719 C 22.792969 18.382812 22.316406 18.449219 22.273438 18.835938 C 22.214844 19.351562 23.027344 19.585938 23.378906 19.667969 C 23.480469 19.691406 23.582031 19.714844 23.683594 19.730469 Z M 23.683594 19.730469 " fill-opacity="0.7" fill-rule="nonzero"/></g></g></g><clipPath id="cddb0925bc"><rect x="0" width="30" y="0" height="30"/></clipPath></defs><g clip-path="url(#d3cffa7a01)"><g transform="matrix(1, 0, 0, 1, 0, 0.000000000000005692)"><g clip-path="url(#cddb0925bc)"><g transform="translate(-6.6, -6.6)" filter="url(#829339c077)"><rect x="0" width="43.2" fill="#000000" height="43.200001" y="0" fill-opacity="1"/></g><path fill="#f8e6d8" d="M 15.570312 3.191406 L 15.671875 3.25 C 15.777344 3.3125 15.800781 3.394531 15.738281 3.503906 L 14.820312 5.09375 C 14.757812 5.199219 14.675781 5.222656 14.570312 5.160156 L 14.46875 5.101562 C 14.363281 5.042969 14.339844 4.957031 14.402344 4.851562 L 15.320312 3.257812 C 15.378906 3.152344 15.464844 3.128906 15.570312 3.191406 Z M 15.570312 3.191406 " fill-opacity="1" fill-rule="nonzero"/><path fill="#6ec9c8" d="M 10.632812 3.214844 L 10.738281 3.164062 C 10.847656 3.109375 10.929688 3.136719 10.984375 3.246094 L 11.804688 4.890625 C 11.859375 5 11.832031 5.082031 11.722656 5.136719 L 11.617188 5.191406 C 11.507812 5.246094 11.425781 5.21875 11.371094 5.109375 L 10.550781 3.464844 C 10.496094 3.355469 10.523438 3.269531 10.632812 3.214844 Z M 10.632812 3.214844 " fill-opacity="1" fill-rule="nonzero"/><path fill="#ce046a" d="M 6.046875 6.851562 L 6.070312 6.738281 C 6.09375 6.617188 6.167969 6.570312 6.289062 6.597656 L 8.085938 6.980469 C 8.207031 7.007812 8.253906 7.078125 8.226562 7.199219 L 8.203125 7.3125 C 8.175781 7.433594 8.105469 7.480469 7.984375 7.453125 L 6.1875 7.070312 C 6.066406 7.042969 6.019531 6.972656 6.046875 6.851562 Z M 6.046875 6.851562 " fill-opacity="1" fill-rule="nonzero"/><path fill="#f8e6d8" d="M 4.773438 9.585938 L 4.875 9.644531 C 4.980469 9.707031 5.003906 9.789062 4.941406 9.898438 L 4.023438 11.488281 C 3.964844 11.59375 3.878906 11.617188 3.773438 11.554688 L 3.671875 11.496094 C 3.566406 11.4375 3.542969 11.351562 3.605469 11.246094 L 4.523438 9.65625 C 4.585938 9.546875 4.667969 9.523438 4.773438 9.585938 Z M 4.773438 9.585938 " fill-opacity="1" fill-rule="nonzero"/><path fill="#ffcd06" d="M 2.394531 13.742188 L 2.480469 13.664062 C 2.570312 13.578125 2.65625 13.582031 2.738281 13.675781 L 3.976562 15.03125 C 4.0625 15.121094 4.058594 15.207031 3.964844 15.289062 L 3.882812 15.371094 C 3.789062 15.453125 3.703125 15.449219 3.621094 15.359375 L 2.382812 14 C 2.296875 13.910156 2.300781 13.824219 2.394531 13.742188 Z M 2.394531 13.742188 " fill-opacity="1" fill-rule="nonzero"/><path fill="#f8e6d8" d="M 7.636719 11.816406 L 7.738281 11.875 C 7.84375 11.9375 7.867188 12.023438 7.804688 12.128906 L 6.886719 13.71875 C 6.824219 13.824219 6.742188 13.847656 6.632812 13.785156 L 6.535156 13.730469 C 6.425781 13.667969 6.402344 13.582031 6.464844 13.476562 L 7.382812 11.886719 C 7.445312 11.777344 7.53125 11.757812 7.636719 11.816406 Z M 7.636719 11.816406 " fill-opacity="1" fill-rule="nonzero"/><path fill="#6ec9c8" d="M 3.816406 16.625 L 3.929688 16.648438 C 4.050781 16.675781 4.097656 16.75 4.070312 16.867188 L 3.6875 18.664062 C 3.660156 18.785156 3.589844 18.832031 3.46875 18.804688 L 3.355469 18.78125 C 3.234375 18.757812 3.1875 18.683594 3.210938 18.5625 L 3.597656 16.765625 C 3.621094 16.648438 3.695312 16.597656 3.816406 16.625 Z M 3.816406 16.625 " fill-opacity="1" fill-rule="nonzero"/><path fill="#f8e6d8" d="M 6.617188 15.285156 L 6.730469 15.316406 C 6.847656 15.347656 6.890625 15.425781 6.855469 15.542969 L 6.355469 17.3125 C 6.324219 17.429688 6.246094 17.472656 6.128906 17.4375 L 6.015625 17.40625 C 5.898438 17.375 5.855469 17.296875 5.890625 17.179688 L 6.390625 15.410156 C 6.421875 15.292969 6.5 15.25 6.617188 15.285156 Z M 6.617188 15.285156 " fill-opacity="1" fill-rule="nonzero"/><path fill="#ce046a" d="M 9.171875 19.28125 L 9.273438 19.335938 C 9.378906 19.398438 9.402344 19.484375 9.339844 19.589844 L 8.421875 21.179688 C 8.359375 21.289062 8.277344 21.308594 8.171875 21.25 L 8.070312 21.191406 C 7.964844 21.128906 7.941406 21.042969 8.003906 20.9375 L 8.921875 19.347656 C 8.980469 19.242188 9.066406 19.21875 9.171875 19.28125 Z M 9.171875 19.28125 " fill-opacity="1" fill-rule="nonzero"/><path fill="#ffcd06" d="M 11.796875 20.75 L 11.851562 20.648438 C 11.90625 20.539062 11.988281 20.511719 12.097656 20.570312 L 13.730469 21.410156 C 13.839844 21.46875 13.867188 21.550781 13.8125 21.660156 L 13.757812 21.761719 C 13.703125 21.871094 13.617188 21.898438 13.507812 21.84375 L 11.875 21 C 11.765625 20.945312 11.742188 20.859375 11.796875 20.75 Z M 11.796875 20.75 " fill-opacity="1" fill-rule="nonzero"/><path fill="#ce046a" d="M 17.589844 21.308594 L 17.546875 21.417969 C 17.5 21.53125 17.421875 21.566406 17.304688 21.519531 L 15.597656 20.84375 C 15.484375 20.800781 15.449219 20.71875 15.496094 20.605469 L 15.539062 20.496094 C 15.582031 20.382812 15.664062 20.347656 15.777344 20.394531 L 17.484375 21.070312 C 17.597656 21.113281 17.632812 21.195312 17.589844 21.308594 Z M 17.589844 21.308594 " fill-opacity="1" fill-rule="nonzero"/><path fill="#f8e6d8" d="M 20.238281 18.140625 L 20.335938 18.199219 C 20.445312 18.257812 20.464844 18.34375 20.40625 18.449219 L 19.488281 20.039062 C 19.425781 20.148438 19.339844 20.167969 19.234375 20.109375 L 19.132812 20.050781 C 19.027344 19.988281 19.003906 19.902344 19.066406 19.796875 L 19.984375 18.207031 C 20.046875 18.101562 20.128906 18.078125 20.238281 18.140625 Z M 20.238281 18.140625 " fill-opacity="1" fill-rule="nonzero"/><path fill="#6ec9c8" d="M 21.953125 13.679688 L 22.042969 13.609375 C 22.140625 13.53125 22.226562 13.542969 22.304688 13.640625 L 23.429688 15.089844 C 23.503906 15.1875 23.496094 15.273438 23.398438 15.351562 L 23.304688 15.421875 C 23.207031 15.496094 23.121094 15.488281 23.046875 15.390625 L 21.917969 13.9375 C 21.84375 13.84375 21.855469 13.753906 21.953125 13.679688 Z M 21.953125 13.679688 " fill-opacity="1" fill-rule="nonzero"/><path fill="#ffcd06" d="M 26.253906 14.28125 L 26.355469 14.339844 C 26.460938 14.402344 26.484375 14.488281 26.421875 14.59375 L 25.503906 16.183594 C 25.441406 16.289062 25.359375 16.3125 25.25 16.25 L 25.152344 16.195312 C 25.042969 16.132812 25.019531 16.046875 25.082031 15.941406 L 26 14.351562 C 26.0625 14.246094 26.148438 14.222656 26.253906 14.28125 Z M 26.253906 14.28125 " fill-opacity="1" fill-rule="nonzero"/><path fill="#f8e6d8" d="M 26.441406 7.042969 L 26.539062 7.101562 C 26.648438 7.164062 26.667969 7.25 26.609375 7.355469 L 25.691406 8.945312 C 25.628906 9.050781 25.542969 9.074219 25.4375 9.011719 L 25.335938 8.957031 C 25.230469 8.894531 25.207031 8.808594 25.269531 8.703125 L 26.1875 7.113281 C 26.25 7.007812 26.332031 6.984375 26.441406 7.042969 Z M 26.441406 7.042969 " fill-opacity="1" fill-rule="nonzero"/><path fill="#ffcd06" d="M 22.144531 4.566406 L 22.253906 4.527344 C 22.371094 4.488281 22.449219 4.523438 22.492188 4.640625 L 23.097656 6.375 C 23.140625 6.492188 23.101562 6.570312 22.984375 6.609375 L 22.875 6.648438 C 22.761719 6.6875 22.683594 6.652344 22.640625 6.535156 L 22.03125 4.800781 C 21.992188 4.6875 22.03125 4.605469 22.144531 4.566406 Z M 22.144531 4.566406 " fill-opacity="1" fill-rule="nonzero"/><path fill="#ce046a" d="M 17.292969 4.8125 L 17.378906 4.734375 C 17.46875 4.652344 17.554688 4.65625 17.640625 4.746094 L 18.878906 6.101562 C 18.960938 6.191406 18.957031 6.277344 18.867188 6.363281 L 18.78125 6.441406 C 18.691406 6.523438 18.601562 6.519531 18.519531 6.429688 L 17.28125 5.074219 C 17.199219 4.980469 17.203125 4.894531 17.292969 4.8125 Z M 17.292969 4.8125 " fill-opacity="1" fill-rule="nonzero"/></g></g></g></svg>