<svg xmlns="http://www.w3.org/2000/svg" xmlns:xlink="http://www.w3.org/1999/xlink" width="1366" zoomAndPan="magnify" viewBox="0 0 1024.5 576" height="768" preserveAspectRatio="xMidYMid meet" version="1.0"><defs><clipPath id="5081529ad5"><path d="M 228.824219 9.511719 L 795.550781 9.511719 L 795.550781 575.859375 L 228.824219 575.859375 Z M 228.824219 9.511719 " clip-rule="nonzero"/></clipPath></defs><g clip-path="url(#5081529ad5)"><path fill="#1a4789" d="M 795.550781 490.050781 C 795.550781 537.617188 756.996094 576.167969 709.4375 576.167969 L 314.960938 576.167969 C 267.402344 576.167969 228.847656 537.617188 228.847656 490.050781 L 228.847656 95.578125 C 228.847656 48.019531 267.402344 9.464844 314.960938 9.464844 L 709.4375 9.464844 C 756.996094 9.464844 795.546875 48.019531 795.546875 95.578125 L 795.546875 490.050781 Z M 795.550781 490.050781 " fill-opacity="1" fill-rule="nonzero"/></g><path fill="#ffffff" d="M 604.34375 336.847656 L 613.511719 265.792969 L 543.144531 265.792969 L 543.144531 220.425781 C 543.144531 199.851562 548.886719 185.832031 578.378906 185.832031 L 615.976562 185.8125 L 615.976562 122.261719 C 609.484375 121.394531 587.167969 119.460938 561.160156 119.460938 C 506.90625 119.460938 469.785156 152.582031 469.785156 213.394531 L 469.785156 265.792969 L 408.421875 265.792969 L 408.421875 336.847656 L 469.785156 336.847656 L 469.785156 519.167969 L 543.144531 519.167969 L 543.144531 336.847656 Z M 604.34375 336.847656 " fill-opacity="1" fill-rule="nonzero"/></svg>