<svg xmlns="http://www.w3.org/2000/svg" xmlns:xlink="http://www.w3.org/1999/xlink" width="1366" zoomAndPan="magnify" viewBox="0 0 1024.5 576" height="768" preserveAspectRatio="xMidYMid meet" version="1.0"><defs><clipPath id="9e03460caf"><path d="M 237.390625 13.734375 L 786.871094 13.734375 L 786.871094 562.464844 L 237.390625 562.464844 Z M 237.390625 13.734375 " clip-rule="nonzero"/></clipPath></defs><g clip-path="url(#9e03460caf)"><path fill="#000000" d="M 786.664062 288.089844 C 786.664062 292.578125 786.550781 297.066406 786.332031 301.550781 C 786.113281 306.035156 785.78125 310.511719 785.339844 314.980469 C 784.902344 319.449219 784.351562 323.902344 783.691406 328.34375 C 783.03125 332.785156 782.265625 337.207031 781.386719 341.613281 C 780.511719 346.015625 779.527344 350.394531 778.433594 354.75 C 777.34375 359.105469 776.144531 363.433594 774.839844 367.730469 C 773.535156 372.027344 772.128906 376.289062 770.613281 380.515625 C 769.101562 384.742188 767.484375 388.929688 765.765625 393.078125 C 764.046875 397.226562 762.226562 401.332031 760.304688 405.390625 C 758.382812 409.449219 756.363281 413.457031 754.246094 417.417969 C 752.128906 421.378906 749.914062 425.28125 747.605469 429.132812 C 745.292969 432.984375 742.890625 436.777344 740.394531 440.511719 C 737.898438 444.246094 735.3125 447.914062 732.636719 451.519531 C 729.960938 455.125 727.195312 458.664062 724.34375 462.136719 C 721.496094 465.605469 718.5625 469.007812 715.542969 472.332031 C 712.527344 475.660156 709.429688 478.910156 706.253906 482.085938 C 703.074219 485.261719 699.824219 488.355469 696.492188 491.371094 C 693.164062 494.386719 689.761719 497.316406 686.289062 500.167969 C 682.816406 503.015625 679.277344 505.777344 675.667969 508.453125 C 672.058594 511.125 668.386719 513.710938 664.648438 516.203125 C 660.914062 518.699219 657.121094 521.101562 653.265625 523.410156 C 649.410156 525.71875 645.503906 527.929688 641.542969 530.046875 C 637.578125 532.164062 633.566406 534.179688 629.503906 536.101562 C 625.445312 538.019531 621.335938 539.839844 617.1875 541.558594 C 613.035156 543.277344 608.84375 544.890625 604.613281 546.40625 C 600.382812 547.917969 596.117188 549.324219 591.820312 550.628906 C 587.519531 551.933594 583.191406 553.128906 578.832031 554.21875 C 574.472656 555.3125 570.089844 556.292969 565.683594 557.171875 C 561.277344 558.046875 556.851562 558.8125 552.410156 559.472656 C 547.964844 560.132812 543.507812 560.679688 539.035156 561.121094 C 534.5625 561.5625 530.082031 561.890625 525.597656 562.113281 C 521.109375 562.332031 516.617188 562.441406 512.125 562.441406 C 507.632812 562.441406 503.140625 562.332031 498.65625 562.113281 C 494.167969 561.890625 489.6875 561.5625 485.214844 561.121094 C 480.746094 560.679688 476.285156 560.132812 471.84375 559.472656 C 467.398438 558.8125 462.972656 558.046875 458.566406 557.171875 C 454.160156 556.292969 449.777344 555.3125 445.417969 554.21875 C 441.058594 553.128906 436.730469 551.933594 432.429688 550.628906 C 428.132812 549.324219 423.867188 547.917969 419.636719 546.40625 C 415.40625 544.890625 411.214844 543.277344 407.066406 541.558594 C 402.914062 539.839844 398.808594 538.019531 394.746094 536.101562 C 390.683594 534.179688 386.671875 532.164062 382.710938 530.046875 C 378.746094 527.929688 374.839844 525.71875 370.984375 523.410156 C 367.132812 521.101562 363.335938 518.699219 359.601562 516.207031 C 355.863281 513.710938 352.191406 511.125 348.582031 508.453125 C 344.976562 505.777344 341.433594 503.015625 337.960938 500.167969 C 334.488281 497.316406 331.085938 494.386719 327.757812 491.371094 C 324.429688 488.355469 321.175781 485.261719 318 482.085938 C 314.820312 478.910156 311.722656 475.660156 308.707031 472.332031 C 305.691406 469.007812 302.753906 465.605469 299.90625 462.136719 C 297.054688 458.664062 294.292969 455.128906 291.613281 451.519531 C 288.9375 447.914062 286.351562 444.246094 283.855469 440.511719 C 281.359375 436.777344 278.957031 432.984375 276.648438 429.132812 C 274.335938 425.28125 272.125 421.378906 270.003906 417.417969 C 267.886719 413.457031 265.867188 409.449219 263.945312 405.390625 C 262.027344 401.332031 260.207031 397.226562 258.484375 393.078125 C 256.765625 388.929688 255.148438 384.742188 253.636719 380.515625 C 252.121094 376.289062 250.714844 372.027344 249.410156 367.730469 C 248.105469 363.433594 246.90625 359.105469 245.816406 354.75 C 244.722656 350.394531 243.738281 346.015625 242.863281 341.613281 C 241.988281 337.207031 241.21875 332.785156 240.558594 328.34375 C 239.902344 323.902344 239.351562 319.449219 238.910156 314.980469 C 238.46875 310.511719 238.140625 306.035156 237.917969 301.550781 C 237.699219 297.066406 237.589844 292.578125 237.589844 288.089844 C 237.589844 283.597656 237.699219 279.109375 237.917969 274.625 C 238.140625 270.140625 238.46875 265.664062 238.910156 261.195312 C 239.351562 256.726562 239.902344 252.273438 240.558594 247.832031 C 241.21875 243.390625 241.988281 238.96875 242.863281 234.5625 C 243.738281 230.160156 244.722656 225.78125 245.816406 221.425781 C 246.90625 217.070312 248.105469 212.742188 249.410156 208.445312 C 250.714844 204.152344 252.121094 199.886719 253.636719 195.660156 C 255.148438 191.433594 256.765625 187.246094 258.484375 183.097656 C 260.207031 178.949219 262.027344 174.84375 263.945312 170.785156 C 265.867188 166.726562 267.886719 162.71875 270.003906 158.757812 C 272.125 154.796875 274.335938 150.894531 276.648438 147.042969 C 278.957031 143.191406 281.359375 139.398438 283.855469 135.664062 C 286.351562 131.929688 288.9375 128.261719 291.613281 124.65625 C 294.292969 121.050781 297.054688 117.511719 299.90625 114.039062 C 302.753906 110.570312 305.691406 107.167969 308.707031 103.84375 C 311.722656 100.515625 314.820312 97.265625 318 94.089844 C 321.175781 90.914062 324.429688 87.820312 327.757812 84.804688 C 331.085938 81.789062 334.488281 78.859375 337.960938 76.007812 C 341.433594 73.160156 344.976562 70.398438 348.582031 67.722656 C 352.191406 65.050781 355.863281 62.464844 359.601562 59.972656 C 363.335938 57.476562 367.132812 55.074219 370.984375 52.765625 C 374.839844 50.457031 378.746094 48.246094 382.710938 46.128906 C 386.671875 44.011719 390.683594 41.996094 394.746094 40.074219 C 398.808594 38.15625 402.914062 36.335938 407.066406 34.617188 C 411.214844 32.898438 415.40625 31.285156 419.636719 29.769531 C 423.867188 28.257812 428.132812 26.851562 432.429688 25.546875 C 436.730469 24.242188 441.058594 23.046875 445.417969 21.957031 C 449.777344 20.863281 454.160156 19.882812 458.566406 19.003906 C 462.972656 18.128906 467.398438 17.363281 471.84375 16.703125 C 476.285156 16.042969 480.746094 15.496094 485.214844 15.054688 C 489.6875 14.613281 494.167969 14.285156 498.65625 14.0625 C 503.140625 13.84375 507.632812 13.734375 512.125 13.734375 C 516.617188 13.734375 521.109375 13.84375 525.597656 14.0625 C 530.082031 14.285156 534.5625 14.613281 539.035156 15.054688 C 543.507812 15.496094 547.964844 16.042969 552.410156 16.703125 C 556.851562 17.363281 561.277344 18.128906 565.683594 19.003906 C 570.089844 19.882812 574.472656 20.863281 578.832031 21.957031 C 583.191406 23.046875 587.519531 24.242188 591.820312 25.546875 C 596.117188 26.851562 600.382812 28.257812 604.613281 29.769531 C 608.84375 31.285156 613.035156 32.898438 617.1875 34.617188 C 621.335938 36.335938 625.445312 38.15625 629.503906 40.074219 C 633.566406 41.996094 637.578125 44.011719 641.542969 46.128906 C 645.503906 48.246094 649.410156 50.457031 653.265625 52.765625 C 657.121094 55.074219 660.914062 57.476562 664.648438 59.972656 C 668.386719 62.464844 672.058594 65.050781 675.667969 67.722656 C 679.277344 70.398438 682.816406 73.160156 686.289062 76.007812 C 689.761719 78.859375 693.164062 81.789062 696.492188 84.804688 C 699.824219 87.820312 703.074219 90.914062 706.253906 94.089844 C 709.429688 97.265625 712.527344 100.515625 715.542969 103.84375 C 718.5625 107.167969 721.496094 110.570312 724.34375 114.039062 C 727.195312 117.511719 729.960938 121.050781 732.636719 124.65625 C 735.3125 128.261719 737.898438 131.929688 740.394531 135.664062 C 742.890625 139.398438 745.292969 143.191406 747.605469 147.042969 C 749.914062 150.894531 752.128906 154.796875 754.246094 158.757812 C 756.363281 162.71875 758.382812 166.726562 760.304688 170.785156 C 762.226562 174.84375 764.046875 178.949219 765.765625 183.097656 C 767.484375 187.246094 769.101562 191.433594 770.613281 195.660156 C 772.128906 199.886719 773.535156 204.152344 774.839844 208.445312 C 776.144531 212.742188 777.34375 217.070312 778.433594 221.425781 C 779.527344 225.78125 780.511719 230.160156 781.386719 234.5625 C 782.265625 238.96875 783.03125 243.390625 783.691406 247.832031 C 784.351562 252.273438 784.902344 256.726562 785.339844 261.195312 C 785.78125 265.664062 786.113281 270.140625 786.332031 274.625 C 786.550781 279.109375 786.664062 283.597656 786.664062 288.089844 Z M 786.664062 288.089844 " fill-opacity="1" fill-rule="nonzero"/></g><path fill="#ffffff" d="M 545.972656 262.3125 L 680.242188 107.640625 L 648.621094 107.640625 L 531.777344 241.910156 L 440.65625 111.050781 L 336.851562 111.050781 L 474.367188 307.886719 L 334.667969 468.40625 L 367.070312 468.40625 L 488.667969 328.335938 L 586.609375 468.539062 L 689.609375 468.539062 Z M 503.429688 311.320312 L 489.152344 290.886719 L 378.765625 132.886719 L 429.230469 132.886719 L 516.984375 258.894531 L 531.191406 279.320312 L 647.75 446.6875 L 598 446.6875 Z M 503.429688 311.320312 " fill-opacity="1" fill-rule="nonzero"/></svg>