<svg xmlns="http://www.w3.org/2000/svg" xmlns:xlink="http://www.w3.org/1999/xlink" width="1366" zoomAndPan="magnify" viewBox="0 0 1024.5 576" height="768" preserveAspectRatio="xMidYMid meet" version="1.0"><defs><clipPath id="c14ea4c6a6"><path d="M 226.648438 8.59375 L 785.125 8.59375 L 785.125 567.074219 L 226.648438 567.074219 Z M 226.648438 8.59375 " clip-rule="nonzero"/></clipPath></defs><g clip-path="url(#c14ea4c6a6)"><path fill="#e52d27" d="M 785.125 482.199219 C 785.125 529.003906 747.058594 567.074219 700.25 567.074219 L 311.519531 567.074219 C 264.714844 567.074219 226.648438 529.003906 226.648438 482.199219 L 226.648438 93.46875 C 226.648438 46.664062 264.714844 8.59375 311.519531 8.59375 L 700.25 8.59375 C 747.058594 8.59375 785.125 46.664062 785.125 93.46875 Z M 785.125 482.199219 " fill-opacity="1" fill-rule="nonzero"/></g><path fill="#ffffff" d="M 703.84375 292.253906 C 703.84375 323.132812 703.84375 355.859375 696.949219 385.769531 C 692.09375 406.84375 674.90625 422.28125 654.125 424.613281 C 605.082031 430.050781 555.363281 430.148438 505.933594 430.050781 C 456.410156 430.050781 406.882812 430.050781 357.746094 424.613281 C 337.0625 422.28125 319.773438 406.84375 314.917969 385.769531 C 308.023438 355.859375 308.023438 323.132812 308.023438 292.253906 C 308.023438 261.371094 308.121094 228.644531 314.917969 198.734375 C 319.773438 177.664062 336.964844 162.222656 357.746094 159.890625 C 406.882812 154.355469 456.503906 154.355469 505.933594 154.355469 C 555.363281 154.355469 604.984375 154.355469 654.125 159.890625 C 674.808594 162.222656 692.09375 177.664062 696.949219 198.734375 C 703.84375 228.644531 703.84375 261.371094 703.84375 292.253906 Z M 703.84375 292.253906 " fill-opacity="1" fill-rule="nonzero"/><path fill="#e52d27" d="M 464.273438 218.644531 L 464.273438 366.542969 L 579.15625 292.542969 Z M 464.273438 218.644531 " fill-opacity="1" fill-rule="nonzero"/></svg>